<svg xmlns="http://www.w3.org/2000/svg" version="1.1" xmlns:xlink="http://www.w3.org/1999/xlink" xmlns:svgjs="http://svgjs.com/svgjs" width="1440" height="560" preserveAspectRatio="none" viewBox="0 0 1440 560"><g mask="url(&quot;#SvgjsMask1000&quot;)" fill="none"><rect width="1440" height="560" x="0" y="0" fill="rgba(241, 212, 235, 1)"></rect><path d="M 0,415 C 72,378 216,241.8 360,230 C 504,218.2 576,354.6 720,356 C 864,357.4 936,226.4 1080,237 C 1224,247.6 1368,374.6 1440,409L1440 560L0 560z" fill="rgba(190, 45, 118, 1)"></path><path d="M 0,319 C 96,288 288,141 480,164 C 672,187 768,424 960,434 C 1152,444 1344,258 1440,214L1440 560L0 560z" fill="rgba(231, 113, 162, 1)"></path></g><defs><mask id="SvgjsMask1000"><rect width="1440" height="560" fill="#ffffff"></rect></mask></defs></svg>